<?xml version="1.0" encoding="UTF-8"?>
<!DOCTYPE svg PUBLIC "-//W3C//DTD SVG 1.1//EN" "http://www.w3.org/Graphics/SVG/1.1/DTD/svg11.dtd">
<svg xmlns="http://www.w3.org/2000/svg" version="1.1" width="512px" height="512px" style="shape-rendering:geometricPrecision; text-rendering:geometricPrecision; image-rendering:optimizeQuality; fill-rule:evenodd; clip-rule:evenodd" xmlns:xlink="http://www.w3.org/1999/xlink">
<g><path style="opacity:0.999" fill="#f0f0f0" d="M 232.5,-0.5 C 247.833,-0.5 263.167,-0.5 278.5,-0.5C 301.525,1.83944 323.859,7.17278 345.5,15.5C 344.5,175.666 344.167,335.999 344.5,496.5C 322.956,504.055 300.956,509.055 278.5,511.5C 263.167,511.5 247.833,511.5 232.5,511.5C 209.475,509.161 187.141,503.827 165.5,495.5C 166.833,335.5 166.833,175.5 165.5,15.5C 187.141,7.17278 209.475,1.83944 232.5,-0.5 Z"/></g>
<g><path style="opacity:1" fill="#6da544" d="M 165.5,15.5 C 166.833,175.5 166.833,335.5 165.5,495.5C 80.6843,461.567 27.1843,400.233 5,311.5C 2.74641,300.424 0.913081,289.424 -0.5,278.5C -0.5,263.167 -0.5,247.833 -0.5,232.5C 10.3875,142.857 54.7208,75.3573 132.5,30C 143.068,24.092 154.068,19.2586 165.5,15.5 Z"/></g>
<g><path style="opacity:1" fill="#fe9812" d="M 345.5,15.5 C 404.78,38.0708 449.946,77.0708 481,132.5C 491.706,152.454 499.539,173.454 504.5,195.5C 504.294,198.495 504.96,201.162 506.5,203.5C 508.361,210.002 509.361,216.669 509.5,223.5C 510.352,241.819 510.685,260.153 510.5,278.5C 500.417,368.362 456.417,435.862 378.5,481C 367.432,486.851 356.099,492.018 344.5,496.5C 344.167,335.999 344.5,175.666 345.5,15.5 Z"/></g>
<g><path style="opacity:0.827" fill="#fcba69" d="M 504.5,195.5 C 505.768,197.905 506.435,200.572 506.5,203.5C 504.96,201.162 504.294,198.495 504.5,195.5 Z"/></g>
<g><path style="opacity:1" fill="#fca942" d="M 509.5,223.5 C 510.167,226.5 510.833,229.5 511.5,232.5C 511.5,247.833 511.5,263.167 511.5,278.5C 511.167,278.5 510.833,278.5 510.5,278.5C 510.685,260.153 510.352,241.819 509.5,223.5 Z"/></g>
</svg>
