<?xml version="1.0" encoding="UTF-8"?>
<svg version="1.1" xmlns="http://www.w3.org/2000/svg" width="512" height="512">
<path d="M0 0 C1.01790619 0.00215515 2.03581238 0.0043103 3.08456421 0.00653076 C17.69363523 0.05620146 32.02575853 0.30709809 46.375 3.3125 C47.34985352 3.51117676 48.32470703 3.70985352 49.32910156 3.91455078 C97.7109774 14.03517194 141.69928269 35.9516877 177.375 70.3125 C178.3640332 71.26068604 178.3640332 71.26068604 179.37304688 72.22802734 C188.86130305 81.37247479 197.6012044 90.66984009 205.375 101.3125 C206.23306152 102.46355017 207.09113451 103.61459177 207.94921875 104.765625 C213.98736829 112.95680614 219.34595521 121.47054105 224.375 130.3125 C224.73948242 130.94430176 225.10396484 131.57610352 225.47949219 132.22705078 C247.08534998 169.97532572 256.85198095 212.74189997 256.6875 255.9375 C256.68534485 256.95540619 256.6831897 257.97331238 256.68096924 259.02206421 C256.63129854 273.63113523 256.38040191 287.96325853 253.375 302.3125 C253.07698486 303.77478027 253.07698486 303.77478027 252.77294922 305.26660156 C242.65232806 353.6484774 220.7358123 397.63678269 186.375 433.3125 C185.74287598 433.97185547 185.11075195 434.63121094 184.45947266 435.31054688 C175.31502521 444.79880305 166.01765991 453.5387044 155.375 461.3125 C154.22394983 462.17056152 153.07290823 463.02863451 151.921875 463.88671875 C143.73224019 469.92427396 135.22961724 475.30707302 126.375 480.3125 C125.66778809 480.7146875 124.96057617 481.116875 124.23193359 481.53125 C101.09654164 494.5566741 75.92537591 503.30551461 49.9375 508.625 C49.21860596 508.77235596 48.49971191 508.91971191 47.7590332 509.0715332 C33.08339502 511.86090125 18.55831162 512.66142619 3.64770508 512.62817383 C0.70811513 512.6250221 -2.2304558 512.64854926 -5.16992188 512.67382812 C-18.54306192 512.71848737 -31.43916711 511.51301542 -44.625 509.3125 C-46.33055054 509.03031616 -46.33055054 509.03031616 -48.07055664 508.74243164 C-91.33802759 500.97044532 -132.38793216 480.98345309 -165.625 452.3125 C-166.37007813 451.67828125 -167.11515625 451.0440625 -167.8828125 450.390625 C-181.38779833 438.57948485 -194.05918743 425.82889772 -204.625 411.3125 C-205.48149066 410.16255169 -206.33826433 409.01281411 -207.1953125 407.86328125 C-213.23534209 399.67315742 -218.61867614 391.16870382 -223.625 382.3125 C-224.0271875 381.60528809 -224.429375 380.89807617 -224.84375 380.16943359 C-237.8691741 357.03404164 -246.61801461 331.86287591 -251.9375 305.875 C-252.08485596 305.15610596 -252.23221191 304.43721191 -252.3840332 303.6965332 C-255.35789088 288.05024391 -255.99800362 272.57681954 -255.9375 256.6875 C-255.93534485 255.66959381 -255.9331897 254.65168762 -255.93096924 253.60293579 C-255.88129854 238.99386477 -255.63040191 224.66174147 -252.625 210.3125 C-252.42632324 209.33764648 -252.22764648 208.36279297 -252.02294922 207.35839844 C-241.90232806 158.9765226 -219.9858123 114.98821731 -185.625 79.3125 C-184.99287598 78.65314453 -184.36075195 77.99378906 -183.70947266 77.31445312 C-174.56502521 67.82619695 -165.26765991 59.0862956 -154.625 51.3125 C-153.47394983 50.45443848 -152.32290823 49.59636549 -151.171875 48.73828125 C-142.98224019 42.70072604 -134.47961724 37.31792698 -125.625 32.3125 C-124.91778809 31.9103125 -124.21057617 31.508125 -123.48193359 31.09375 C-100.34654164 18.0683259 -75.17537591 9.31948539 -49.1875 4 C-48.46860596 3.85264404 -47.74971191 3.70528809 -47.0090332 3.5534668 C-31.36274391 0.57960912 -15.88931954 -0.06050362 0 0 Z " fill="#FFDA44" transform="translate(255.625,-0.3125)"/>
<path d="M0 0 C102.3 0 204.6 0 310 0 C309.32736446 8.74426197 308.52615502 16.4422167 306.4375 24.8125 C306.17428955 25.88072998 305.9110791 26.94895996 305.63989258 28.04956055 C294.53466182 71.85620639 273.39175809 111.40695541 242 144 C241.36787598 144.65935547 240.73575195 145.31871094 240.08447266 145.99804688 C230.94002521 155.48630305 221.64265991 164.2262044 211 172 C209.84894983 172.85806152 208.69790823 173.71613451 207.546875 174.57421875 C199.35724019 180.61177396 190.85461724 185.99457302 182 191 C180.93918213 191.60328125 180.93918213 191.60328125 179.85693359 192.21875 C156.72154164 205.2441741 131.55037591 213.99301461 105.5625 219.3125 C104.84360596 219.45985596 104.12471191 219.60721191 103.3840332 219.7590332 C88.70839502 222.54840125 74.18331162 223.34892619 59.27270508 223.31567383 C56.33311513 223.3125221 53.3945442 223.33604926 50.45507812 223.36132812 C33.23045309 223.41866865 16.94263556 221.08047919 0 218 C0 146.06 0 74.12 0 0 Z " fill="#0152B3" transform="translate(200,289)"/>
<path d="M0 0 C0.84685867 -0.00945648 1.69371735 -0.01891296 2.5662384 -0.02865601 C3.45300766 -0.03305695 4.33977692 -0.03745789 5.25341797 -0.04199219 C6.67294014 -0.05258163 6.67294014 -0.05258163 8.12113953 -0.06338501 C47.63712658 -0.29127818 47.63712658 -0.29127818 64.12060547 3.16113281 C65.09545898 3.35980957 66.0703125 3.55848633 67.07470703 3.76318359 C115.45658287 13.88380475 159.44488816 35.80032051 195.12060547 70.16113281 C196.10963867 71.10931885 196.10963867 71.10931885 197.11865234 72.07666016 C206.60690852 81.2211076 215.34680987 90.51847291 223.12060547 101.16113281 C223.97866699 102.31218298 224.83673998 103.46322459 225.69482422 104.61425781 C231.73297376 112.80543896 237.09156067 121.31917386 242.12060547 130.16113281 C242.48508789 130.79293457 242.84957031 131.42473633 243.22509766 132.07568359 C258.27964781 158.37796252 272.12060547 192.43414504 272.12060547 223.16113281 C169.82060547 223.16113281 67.52060547 223.16113281 -37.87939453 223.16113281 C-37.87939453 151.22113281 -37.87939453 79.28113281 -37.87939453 5.16113281 C-7.32490279 0.06871752 -7.32490279 0.06871752 0 0 Z " fill="#0152B3" transform="translate(237.87939453125,-0.1611328125)"/>
<path d="M0 0 C43.56 0 87.12 0 132 0 C132 63.36 132 126.72 132 192 C125.23578947 189.74526316 125.23578947 189.74526316 122.4765625 188.0390625 C121.85628174 187.6562915 121.23600098 187.27352051 120.59692383 186.87915039 C119.94618896 186.46528076 119.2954541 186.05141113 118.625 185.625 C117.58605591 184.96842407 117.58605591 184.96842407 116.52612305 184.29858398 C108.7041594 179.27730537 101.29988685 173.74671943 94 168 C93.195625 167.37351562 93.195625 167.37351562 92.375 166.734375 C76.12601827 153.96731792 61.07291549 138.77267529 49 122 C48.14823199 120.85335128 47.29534537 119.70753275 46.44140625 118.5625 C40.39396867 110.37089798 35.00901588 101.86096602 30 93 C29.5978125 92.29278809 29.195625 91.58557617 28.78125 90.85693359 C15.63978263 67.51542885 6.92167669 42.1507046 1.5625 15.9375 C1.39838623 15.13481689 1.23427246 14.33213379 1.06518555 13.50512695 C0.16342016 8.77123717 0 4.99251037 0 0 Z " fill="#0353B2" transform="translate(2,289)"/>
<path d="M0 0 C0 63.36 0 126.72 0 192 C-43.56 192 -87.12 192 -132 192 C-131.32736446 183.25573803 -130.52615502 175.5577833 -128.4375 167.1875 C-128.04268433 165.58515503 -128.04268433 165.58515503 -127.63989258 163.95043945 C-116.53466182 120.14379361 -95.39175809 80.59304459 -64 48 C-63.36787598 47.34064453 -62.73575195 46.68128906 -62.08447266 46.00195312 C-52.94002521 36.51369695 -43.64265991 27.7737956 -33 20 C-31.84894983 19.14193848 -30.69790823 18.28386549 -29.546875 17.42578125 C-5.89381285 0 -5.89381285 0 0 0 Z " fill="#0353B2" transform="translate(134,31)"/>
</svg>
